<svg width="30" height="30" viewBox="0 0 30 30" fill="none" xmlns="http://www.w3.org/2000/svg">
<g clip-path="url(#clip0_16699_18096)">
<path d="M22.5624 10.8984C18.4914 10.8984 15.1797 14.2101 15.1797 18.2811C15.1797 22.3522 18.4913 25.6638 22.5624 25.6638C26.6334 25.6638 29.9998 22.3522 29.9998 18.2811C29.9998 14.2101 26.6335 10.8984 22.5624 10.8984ZM23.4043 22.2344C23.3972 22.2371 23.3898 22.2359 23.3826 22.2383V23.203C23.3826 23.6564 23.0158 24.0233 22.5623 24.0233C22.1089 24.0233 21.742 23.6564 21.742 23.203V22.2327C21.2018 22.0502 20.6841 21.7038 20.2416 21.1762C19.95 20.8294 19.9948 20.3119 20.3425 20.0211C20.6894 19.7295 21.2085 19.7743 21.4977 20.122C21.9318 20.6387 22.4229 20.8438 22.8427 20.6932C23.1655 20.5754 23.3826 20.2654 23.3826 19.9218C23.3826 19.4692 23.0149 19.1015 22.5623 19.1015C21.2053 19.1015 20.1015 17.9975 20.1015 16.6406C20.1015 15.6496 20.691 14.7596 21.6035 14.3736C21.6487 14.3544 21.6965 14.3555 21.7421 14.3392V13.3594C21.7421 12.906 22.109 12.5391 22.5624 12.5391C23.0158 12.5391 23.3827 12.906 23.3827 13.3594V14.3407C23.8075 14.4842 24.2217 14.7123 24.5915 15.0705C24.9167 15.3853 24.9248 15.9044 24.6091 16.2305C24.2943 16.5557 23.7744 16.5629 23.4491 16.2481C23.0502 15.8612 22.6088 15.7282 22.2435 15.8844C21.9391 16.0134 21.742 16.3098 21.742 16.6406C21.742 17.0932 22.1097 17.4609 22.5623 17.4609C23.9194 17.4609 25.0232 18.5649 25.0232 19.9218C25.0233 20.9527 24.3728 21.882 23.4043 22.2344Z" fill="#495D75"/>
<path d="M2.82056 19.1016C2.36714 19.1016 2.00024 19.4685 2.00024 19.9219V28.1796C2.00024 28.633 2.36714 28.9999 2.82056 28.9999H5.28144V19.1016H2.82056Z" fill="#495D75"/>
<path d="M21.4553 6.12009L15.7132 1.19827C15.4071 0.93391 14.9521 0.93391 14.6461 1.19827L8.90402 6.12009C8.64289 6.34278 8.54916 6.70486 8.66848 7.02692C8.78705 7.34897 9.09384 7.56286 9.43755 7.56286H11.8984C11.8984 14.6547 11.8984 21.9078 11.8984 29.0001C14.0117 29.0001 15.4726 29.0001 17.6406 29.0001C18.094 29.0001 18.4609 28.6332 18.4609 28.1798V26.3087C15.5437 24.8119 13.5391 21.7795 13.5391 18.2815C13.5391 14.7835 15.5438 11.751 18.4609 10.2543V7.56291H20.9218C21.2654 7.56291 21.5723 7.34903 21.6908 7.02697C21.8102 6.70486 21.7165 6.34278 21.4553 6.12009Z" fill="#495D75"/>
<path d="M7.797 12.5391C7.34358 12.5391 6.97668 12.906 6.97668 13.3594V19.1015V28.9997C8.17489 28.9997 9.09451 28.9997 10.2579 28.9997V12.5391H7.797Z" fill="#495D75"/>
</g>
<defs>
<clipPath id="clip0_16699_18096">
<rect width="28" height="28" fill="white" transform="translate(2 1)"/>
</clipPath>
</defs>
</svg>
