<svg width="167" height="18" viewBox="0 0 167 18" fill="none" xmlns="http://www.w3.org/2000/svg">
<path d="M28.2904 3H25.0901C24.9019 3 24.7137 3.18582 24.6195 3.3717L23.3018 11.5496C23.3018 11.7354 23.3959 11.8284 23.5842 11.8284H25.2784C25.4666 11.8284 25.5608 11.7354 25.5608 11.5496L25.9372 9.22632C25.9372 9.04043 26.1255 8.85461 26.4078 8.85461H27.4433C29.6081 8.85461 30.8317 7.83238 31.1141 5.78786C31.3023 4.95152 31.1141 4.20805 30.7376 3.7434C30.1728 3.27876 29.3257 3 28.2904 3ZM28.6668 6.06669C28.4786 7.18186 27.6315 7.18186 26.7844 7.18186H26.2196L26.5961 5.04446C26.5961 4.95152 26.6903 4.85857 26.8785 4.85857H27.0667C27.6315 4.85857 28.1962 4.85857 28.4786 5.23028C28.6669 5.32322 28.6668 5.60204 28.6668 6.06669Z" fill="#B3CEE2"/>
<path d="M5.22983 3H2.0296C1.84132 3 1.65305 3.18582 1.55891 3.3717L0.241211 11.5496C0.241211 11.7354 0.335346 11.8284 0.523551 11.8284H2.0296C2.2178 11.8284 2.40607 11.6425 2.50021 11.4567L2.87669 9.22632C2.87669 9.04043 3.06496 8.85461 3.3473 8.85461H4.38267C6.54753 8.85461 7.77117 7.83238 8.05351 5.78786C8.24178 4.95152 8.05351 4.20805 7.67703 3.7434C7.11228 3.27876 6.35933 3 5.22983 3ZM5.6063 6.06669C5.41803 7.18186 4.57094 7.18186 3.72378 7.18186H3.25317L3.62971 5.04446C3.62971 4.95152 3.72378 4.85857 3.91205 4.85857H4.10032C4.66507 4.85857 5.22982 4.85857 5.51217 5.23028C5.6063 5.32322 5.70044 5.60204 5.6063 6.06669Z" fill="#B3CEE2"/>
<path d="M14.9237 5.97348H13.4177C13.3236 5.97348 13.1354 6.06642 13.1354 6.15937L13.0413 6.62401L12.9471 6.43813C12.5706 5.97348 11.9118 5.7876 11.1587 5.7876C9.46455 5.7876 7.9585 7.08865 7.67616 8.85435C7.48789 9.78364 7.7703 10.62 8.24091 11.1776C8.71153 11.7352 9.37041 11.921 10.2175 11.921C11.6294 11.921 12.3824 11.0846 12.3824 11.0846L12.2882 11.5493C12.2882 11.7352 12.3824 11.8281 12.5706 11.8281H13.9825C14.1708 11.8281 14.359 11.6422 14.4531 11.4564L15.3003 6.25231C15.2061 6.15937 15.0178 5.97348 14.9237 5.97348ZM12.7588 8.94729C12.5706 9.78364 11.9118 10.4342 10.9705 10.4342C10.4999 10.4342 10.1234 10.2483 9.93516 10.0624C9.74689 9.78364 9.65275 9.41194 9.65275 8.94729C9.74689 8.11088 10.4999 7.46035 11.347 7.46035C11.8176 7.46035 12.1 7.64624 12.3824 7.83212C12.6648 8.11088 12.7588 8.57553 12.7588 8.94729Z" fill="#B3CEE2"/>
<path d="M37.889 5.97348H36.3831C36.2889 5.97348 36.1007 6.06642 36.1007 6.15937L36.0066 6.62401L35.9125 6.43813C35.536 5.97348 34.8771 5.7876 34.1241 5.7876C32.4298 5.7876 30.9238 7.08865 30.6415 8.85435C30.4532 9.78364 30.7356 10.62 31.2062 11.1776C31.6769 11.7352 32.3358 11.921 33.1828 11.921C34.5947 11.921 35.3477 11.0846 35.3477 11.0846L35.2536 11.5493C35.2536 11.7352 35.3477 11.8281 35.536 11.8281H36.9478C37.1361 11.8281 37.3243 11.6422 37.4184 11.4564L38.2656 6.25231C38.1715 6.15937 38.0773 5.97348 37.889 5.97348ZM35.7242 8.94729C35.536 9.78364 34.8771 10.4342 33.9359 10.4342C33.4652 10.4342 33.0887 10.2483 32.9004 10.0624C32.7122 9.78364 32.6181 9.41194 32.6181 8.94729C32.7122 8.11088 33.4652 7.46035 34.3123 7.46035C34.783 7.46035 35.0653 7.64624 35.3477 7.83212C35.7242 8.11088 35.8183 8.57553 35.7242 8.94729Z" fill="#B3CEE2"/>
<path d="M23.1129 5.97412H21.5127C21.3245 5.97412 21.2303 6.06706 21.1362 6.16L19.0655 9.31964L18.1242 6.34582C18.0301 6.16001 17.936 6.06706 17.6536 6.06706H16.1476C15.9594 6.06706 15.8652 6.25295 15.8652 6.43877L17.5595 11.3641L15.9594 13.5944C15.8652 13.7803 15.9594 14.0591 16.1476 14.0591H17.6536C17.8418 14.0591 17.936 13.9661 18.0301 13.8732L23.2069 6.53171C23.4893 6.25295 23.3011 5.97412 23.1129 5.97412Z" fill="#B3CEE2"/>
<path d="M39.6786 3.27892L38.3608 11.6426C38.3608 11.8285 38.455 11.9215 38.6433 11.9215H39.961C40.1492 11.9215 40.3375 11.7356 40.4316 11.5498L41.7493 3.37186C41.7493 3.18598 41.6552 3.0931 41.467 3.0931H39.961C39.8669 3.00016 39.7728 3.0931 39.6786 3.27892Z" fill="#B3CEE2"/>
<path d="M84.4697 2L82.2321 15.7456H85.8083L88.0443 2H84.4697ZM95.2562 7.59919C94.0063 6.98992 93.2405 6.5787 93.2405 5.95551C93.2557 5.38896 93.8881 4.8085 95.3006 4.8085C96.4622 4.77969 97.3163 5.04922 97.9639 5.31743L98.2887 5.46044L98.7747 2.58455C98.0684 2.31498 96.9487 2.01796 95.5652 2.01796C92.034 2.01796 89.5475 3.83068 89.5318 6.42333C89.5027 8.33653 91.3119 9.39819 92.6663 10.0351C94.0497 10.6884 94.5204 11.1119 94.5204 11.6924C94.5051 12.5837 93.4021 12.9948 92.3725 12.9948C90.9462 12.9948 90.1799 12.7831 89.0167 12.2864L88.5461 12.0747L88.0458 15.0634C88.8856 15.4321 90.4307 15.7566 92.034 15.7732C95.787 15.7732 98.2291 13.9879 98.2597 11.2248C98.272 9.70908 97.3178 8.54816 95.2562 7.59919ZM107.943 2.04253H105.176C104.323 2.04253 103.676 2.28466 103.306 3.14842L97.9945 15.7456H101.748L102.781 13.0182H106.98L107.516 15.7566H110.826L107.943 2.04253ZM103.822 10.2658C103.894 10.2728 105.262 5.81372 105.262 5.81372L106.352 10.2658C106.352 10.2658 104.528 10.2658 103.822 10.2658ZM79.2445 2L75.7408 11.3388L75.3593 9.49712C74.7112 7.37214 72.6802 5.06294 70.4136 3.91593L73.622 15.7319H77.4057L83.0281 2.00151H79.2445V2Z" fill="#B3CEE2"/>
<path d="M74.18 3.77347C73.9069 2.72538 73.0366 2.0185 71.8537 2.00342H66.3052L66.248 2.25776C70.5763 3.31125 74.2091 6.55297 75.388 9.60224L74.18 3.77347Z" fill="#B3CEE2"/>
<path fill-rule="evenodd" clip-rule="evenodd" d="M151.618 15.667C153.215 17.1192 155.358 18.0001 157.69 18.0001C162.697 18.0001 166.751 13.9675 166.751 9.00766C166.751 4.03276 162.697 0 157.69 0C155.358 0 153.215 0.880686 151.618 2.33307C149.787 3.98621 148.629 6.36564 148.629 9.00766C148.629 11.6497 149.787 14.0293 151.618 15.667Z" fill="#B3CEE2"/>
<path fill-rule="evenodd" clip-rule="evenodd" d="M154.545 8.04988C154.514 7.72549 154.451 7.41654 154.389 7.09192H148.849C148.911 6.76753 149.006 6.45858 149.099 6.14944H154.123C154.014 5.82418 153.888 5.50447 153.747 5.19148H149.491C149.647 4.86421 149.82 4.54454 150.007 4.23351H153.215C153.009 3.90353 152.779 3.58858 152.527 3.29103H150.696C150.979 2.9495 151.287 2.6293 151.619 2.33307C150.007 0.896126 147.879 0 145.531 0C140.539 0 136.471 4.03276 136.471 9.00766C136.471 13.9675 140.539 18.0001 145.531 18.0001C147.879 18.0001 150.007 17.1192 151.619 15.667C151.945 15.3759 152.249 15.0608 152.527 14.7243H150.696C150.445 14.4154 150.226 14.1064 150.007 13.7664H153.215C153.417 13.4608 153.595 13.1406 153.748 12.8084H149.491C149.35 12.4994 149.209 12.1905 149.099 11.8657H154.123C154.232 11.5568 154.311 11.2325 154.389 10.9078C154.451 10.5988 154.514 10.2746 154.545 9.9498C154.577 9.63654 154.593 9.32193 154.592 9.00713C154.592 8.68326 154.576 8.35883 154.545 8.04988Z" fill="#B3CEE2"/>
<path fill-rule="evenodd" clip-rule="evenodd" d="M148.535 11.6038C148.238 11.6809 148.018 11.7275 147.799 11.7275C147.33 11.7275 147.048 11.4338 147.048 10.9084C147.048 10.8004 147.064 10.6922 147.079 10.5686L147.142 10.2134L147.189 9.91976L147.611 7.38593H148.55L148.441 7.94219H149.036L148.895 8.86923H148.3L148.05 10.3833C148.034 10.4607 148.034 10.5069 148.034 10.5379C148.034 10.7388 148.128 10.8159 148.363 10.8159C148.472 10.8159 148.566 10.8006 148.66 10.785L148.535 11.6038ZM151.571 11.5729C151.227 11.6657 150.914 11.7118 150.569 11.7118C149.505 11.7118 148.895 11.1556 148.895 10.0589C148.895 8.77633 149.615 7.84928 150.616 7.84928C151.414 7.84928 151.93 8.37462 151.93 9.19328C151.93 9.47169 151.899 9.73429 151.821 10.105H149.865C149.849 10.1669 149.849 10.1978 149.849 10.2287C149.849 10.6613 150.146 10.8775 150.71 10.8775C151.07 10.8775 151.383 10.8004 151.727 10.646L151.571 11.5729ZM150.992 9.3635V9.17799C150.992 8.86904 150.82 8.69901 150.522 8.69901C150.209 8.69901 149.99 8.93069 149.896 9.36331H150.992V9.3635ZM141.023 11.65H140.053L140.616 8.14295L139.349 11.65H138.676L138.598 8.15842L138.003 11.65H137.048L137.815 7.09227H139.239L139.271 9.90447L140.225 7.09227H141.79L141.023 11.65ZM143.386 9.99703C143.293 9.9814 143.261 9.9814 143.199 9.9814C142.635 9.9814 142.354 10.1976 142.354 10.5377C142.354 10.7695 142.494 10.9241 142.713 10.9241C143.183 10.9241 143.371 10.5377 143.386 9.99703ZM144.169 11.65H143.324L143.339 11.2639C143.12 11.5573 142.823 11.7118 142.307 11.7118C141.837 11.7118 141.43 11.2949 141.43 10.6922C141.43 10.5224 141.462 10.368 141.509 10.2134C141.665 9.64154 142.244 9.28638 143.136 9.27075C143.246 9.27075 143.418 9.27075 143.574 9.28638C143.605 9.16274 143.605 9.1162 143.605 9.03907C143.605 8.79177 143.402 8.71449 142.948 8.71449C142.666 8.71449 142.353 8.76085 142.134 8.83812L141.993 8.86904L141.931 8.88433L142.072 8.05004C142.526 7.91093 142.854 7.84928 143.214 7.84928C144.059 7.84928 144.513 8.23551 144.513 8.94617C144.513 9.13164 144.529 9.27075 144.466 9.67245L144.247 11.0012L144.216 11.233L144.2 11.4185L144.184 11.5422L144.169 11.65ZM156.297 7.97292C156.578 7.97292 156.829 8.05019 157.173 8.22003L157.345 7.23119C157.251 7.1848 157.22 7.1848 157.095 7.13844L156.704 7.03024C156.579 6.99933 156.422 6.98389 156.25 6.98389C155.765 6.98389 155.483 6.99933 155.186 7.16936C155.029 7.27755 154.826 7.41666 154.607 7.66378L154.482 7.63286L153.48 8.32808L153.527 7.94181H152.494L151.884 11.6498H152.87L153.23 9.65698C153.23 9.65698 153.371 9.37856 153.433 9.28619C153.621 9.05436 153.778 9.05436 153.981 9.05436H154.059C154.027 9.28981 154.011 9.5273 154.012 9.76502C154.012 10.9701 154.701 11.7273 155.765 11.7273C156.031 11.7273 156.266 11.6964 156.626 11.6036L156.798 10.5531C156.485 10.7229 156.203 10.8003 155.969 10.8003C155.39 10.8003 155.045 10.3676 155.045 9.68789C155.045 8.68357 155.561 7.97292 156.297 7.97292ZM164.606 7.09227L164.387 8.39006C164.153 8.03475 163.871 7.86472 163.495 7.86472C162.979 7.86472 162.494 8.15823 162.196 8.71449V8.6992L161.57 8.32826L161.633 7.942H160.584L159.99 11.65H160.96L161.289 9.65716C161.289 9.65716 161.539 9.37875 161.602 9.28638C161.758 9.10091 161.915 9.0698 162.04 9.05455C161.931 9.3635 161.868 9.73425 161.868 10.1516C161.868 11.0786 162.353 11.6966 163.073 11.6966C163.433 11.6966 163.714 11.5729 163.98 11.2792L163.933 11.65H164.857L165.608 7.09227H164.606ZM163.402 10.7695C163.073 10.7695 162.901 10.5224 162.901 10.0432C162.901 9.31695 163.213 8.79177 163.667 8.79177C164.011 8.79177 164.184 9.05455 164.184 9.51805C164.184 10.2596 163.871 10.7695 163.402 10.7695ZM158.879 9.99703C158.785 9.9814 158.754 9.9814 158.691 9.9814C158.127 9.9814 157.846 10.1976 157.846 10.5377C157.846 10.7695 157.987 10.9241 158.206 10.9241C158.675 10.9241 158.863 10.5377 158.879 9.99703ZM159.661 11.65H158.801L158.832 11.2639C158.613 11.5573 158.315 11.7118 157.799 11.7118C157.314 11.7118 156.892 11.3101 156.892 10.6922C156.892 9.81175 157.564 9.27094 158.629 9.27094C158.738 9.27094 158.91 9.27094 159.051 9.28657C159.082 9.16293 159.098 9.11635 159.098 9.03926C159.098 8.79196 158.895 8.71468 158.425 8.71468C158.159 8.71468 157.831 8.76104 157.612 8.83831L157.487 8.86923L157.424 8.88452L157.565 8.05019C158.018 7.91108 158.347 7.84943 158.707 7.84943C159.552 7.84943 159.99 8.2357 159.99 8.94636C159.99 9.13183 160.022 9.27094 159.943 9.67264L159.74 11.0014L159.708 11.2332L159.677 11.4187L159.662 11.5424V11.65H159.661ZM146.219 8.72993C146.407 8.72993 146.673 8.74541 146.954 8.79177L147.095 7.92656C146.813 7.89564 146.438 7.84928 146.219 7.84928C145.123 7.84928 144.764 8.43646 144.764 9.1162C144.764 9.56441 144.967 9.88865 145.499 10.1358C145.89 10.3213 145.953 10.352 145.953 10.5222C145.953 10.7537 145.749 10.893 145.374 10.893C145.076 10.893 144.795 10.8464 144.482 10.7384L144.372 11.588L144.388 11.6036L144.575 11.6345C144.638 11.6498 144.717 11.6655 144.826 11.6807C145.061 11.6964 145.264 11.7116 145.389 11.7116C146.485 11.7116 146.939 11.2947 146.939 10.4756C146.939 9.96593 146.688 9.65698 146.203 9.44078C145.781 9.25512 145.734 9.22454 145.734 9.05436C145.734 8.88452 145.921 8.72993 146.219 8.72993Z" fill="#18222E"/>
</svg>
