<svg width="29" height="29" viewBox="0 0 29 29" fill="none" xmlns="http://www.w3.org/2000/svg">
<g clip-path="url(#clip0_16699_18015)">
<path d="M9.40232 5.15431H10.2519V6.91017C10.2519 7.37978 10.6319 7.75978 11.1015 7.75978H14.5C14.9696 7.75978 15.3496 7.37978 15.3496 6.91017V5.15431H16.1992C16.5427 5.15431 16.853 4.94774 16.9841 4.62993C17.116 4.31218 17.043 3.94707 16.7999 3.70397L13.4014 0.248893C13.0696 -0.0829644 12.5319 -0.0829644 12.2 0.248893L8.80159 3.70397C8.55848 3.94707 8.48547 4.31212 8.61739 4.62993C8.74851 4.94774 9.05885 5.15431 9.40232 5.15431Z" fill="#495D75"/>
<path d="M20.4473 15.4062C16.6934 15.4062 13.6504 18.4493 13.6504 22.2031C13.6504 25.9569 16.6934 29 20.4473 29C24.2011 29 27.2441 25.9569 27.2441 22.2031C27.2441 18.4493 24.2011 15.4062 20.4473 15.4062ZM21.8709 25.2608C21.6869 25.3527 21.494 25.4252 21.2966 25.48V25.7148C21.2966 26.184 20.9162 26.5644 20.447 26.5644C19.9778 26.5644 19.5974 26.184 19.5974 25.7148V25.5066C19.2437 25.4175 18.9139 25.2678 18.6345 25.0583C18.2591 24.7768 18.183 24.2443 18.4646 23.8689C18.7461 23.4936 19.2787 23.4174 19.654 23.6989C19.9939 23.9538 20.6475 23.9727 21.111 23.741C21.2973 23.6478 21.3978 23.5357 21.3978 23.4775C21.3978 23.3758 21.3978 23.3601 21.2848 23.2998C21.0631 23.1815 20.6711 23.1088 20.292 23.0385C19.7859 22.9446 19.2626 22.8475 18.8092 22.6054C18.147 22.252 17.7969 21.6722 17.7969 20.9287C17.7969 20.1843 18.2433 19.5342 19.0216 19.145C19.2061 19.0528 19.3995 18.9798 19.5974 18.9249V18.6913C19.5974 18.2221 19.9778 17.8417 20.447 17.8417C20.9162 17.8417 21.2966 18.2221 21.2966 18.6913V18.8994C21.6503 18.9885 21.9801 19.1383 22.2595 19.3478C22.6349 19.6294 22.711 20.1619 22.4294 20.5373C22.1478 20.9126 21.6154 20.9887 21.24 20.7072C20.8996 20.4519 20.2454 20.433 19.7815 20.6648C19.5941 20.7585 19.4962 20.8684 19.4962 20.9286C19.4962 21.0303 19.4962 21.046 19.6092 21.1063C19.8309 21.2247 20.2229 21.2974 20.602 21.3677C21.108 21.4616 21.6313 21.5587 22.0849 21.8007C22.747 22.1541 23.097 22.734 23.097 23.4775C23.0971 24.2212 22.6501 24.8711 21.8709 25.2608Z" fill="#495D75"/>
<path d="M6.00391 12.0078H21.2969C21.7661 12.0078 22.1465 11.6274 22.1465 11.1582V10.3086C22.1465 9.83938 21.7661 9.45898 21.2969 9.45898H6.00391C5.5347 9.45898 5.1543 9.83938 5.1543 10.3086V11.1582C5.1543 11.6274 5.5347 12.0078 6.00391 12.0078Z" fill="#495D75"/>
<path d="M3.45508 27.3008V28.1504C3.45508 28.6196 3.83548 29 4.30469 29H15.4022C14.4805 28.3137 13.7145 27.4479 13.133 26.4512H4.30469C3.83548 26.4512 3.45508 26.8316 3.45508 27.3008Z" fill="#495D75"/>
<path d="M3.45508 18.8047V19.6543C3.45508 20.1235 3.83548 20.5039 4.30469 20.5039H12.1229C12.31 19.5859 12.6752 18.7401 13.133 17.9551H4.30469C3.83548 17.9551 3.45508 18.3355 3.45508 18.8047Z" fill="#495D75"/>
<path d="M2.60547 24.752H12.385C12.1279 23.9422 11.9512 23.0969 11.9512 22.2031H2.60547C2.13626 22.2031 1.75586 22.5835 1.75586 23.0527V23.9023C1.75586 24.3716 2.13626 24.752 2.60547 24.752Z" fill="#495D75"/>
<path d="M2.60547 16.2559H14.3952C15.9375 14.6864 18.0783 13.707 20.4473 13.707H2.60547C2.13626 13.707 1.75586 14.0874 1.75586 14.5566V15.4062C1.75586 15.8755 2.13626 16.2559 2.60547 16.2559Z" fill="#495D75"/>
</g>
<defs>
<clipPath id="clip0_16699_18015">
<rect width="29" height="29" fill="white"/>
</clipPath>
</defs>
</svg>
