<svg width="29" height="30" viewBox="0 0 29 30" fill="none" xmlns="http://www.w3.org/2000/svg">
<g clip-path="url(#clip0_16772_17156)">
<path d="M4.35 16.875H2.9C1.79888 16.875 0.90625 17.7984 0.90625 18.9375V27C0.90625 28.1391 1.79888 29.0625 2.9 29.0625H4.35C5.45112 29.0625 6.34375 28.1391 6.34375 27V18.9375C6.34375 17.7984 5.45112 16.875 4.35 16.875Z" fill="#495D75"/>
<path d="M11.6 14.0625H10.15C9.04888 14.0625 8.15625 14.9859 8.15625 16.125V27C8.15625 28.1391 9.04888 29.0625 10.15 29.0625H11.6C12.7011 29.0625 13.5938 28.1391 13.5938 27V16.125C13.5938 14.9859 12.7011 14.0625 11.6 14.0625Z" fill="#495D75"/>
<path d="M18.85 10.3125H17.4C16.2989 10.3125 15.4062 11.2359 15.4062 12.375V27C15.4062 28.1391 16.2989 29.0625 17.4 29.0625H18.85C19.9511 29.0625 20.8438 28.1391 20.8438 27V12.375C20.8438 11.2359 19.9511 10.3125 18.85 10.3125Z" fill="#495D75"/>
<path d="M26.1 6.5625H24.65C23.5489 6.5625 22.6562 7.48591 22.6562 8.625V27C22.6562 28.1391 23.5489 29.0625 24.65 29.0625H26.1C27.2011 29.0625 28.0938 28.1391 28.0938 27V8.625C28.0938 7.48591 27.2011 6.5625 26.1 6.5625Z" fill="#495D75"/>
<path d="M23.5107 1.93156L21.1229 0.967532C21.012 0.92275 20.8937 0.900997 20.7747 0.903517C20.6557 0.906036 20.5384 0.932779 20.4294 0.982217C20.3203 1.03166 20.2218 1.10282 20.1394 1.19165C20.057 1.28048 19.9923 1.38524 19.949 1.49994C19.9057 1.61464 19.8846 1.73703 19.8871 1.86014C19.8895 1.98325 19.9154 2.10465 19.9632 2.21742C20.011 2.33019 20.0797 2.43212 20.1656 2.51739C20.2515 2.60266 20.3528 2.66959 20.4636 2.71438L20.813 2.855L4.16744 10.4061C4.05843 10.4555 3.95989 10.5267 3.87746 10.6155C3.79502 10.7043 3.7303 10.809 3.687 10.9237C3.59954 11.1553 3.60461 11.4134 3.70108 11.6412C3.74885 11.7539 3.81763 11.8559 3.90348 11.9411C3.98933 12.0264 4.09058 12.0934 4.20144 12.1382C4.42534 12.2286 4.67481 12.2234 4.89498 12.1236L21.5415 4.57259L21.405 4.93409C21.3617 5.04879 21.3407 5.17119 21.3432 5.2943C21.3456 5.4174 21.3714 5.53881 21.4192 5.65158C21.5158 5.87933 21.6958 6.05809 21.9197 6.14853C22.1436 6.23898 22.3931 6.23369 22.6133 6.13385C22.7223 6.08441 22.8208 6.01324 22.9032 5.92441C22.9857 5.83558 23.0504 5.73083 23.0937 5.61613L24.0253 3.14609C24.1126 2.91444 24.1075 2.65639 24.011 2.42865C23.9145 2.20091 23.7346 2.02212 23.5107 1.93156Z" fill="#495D75"/>
</g>
<defs>
<clipPath id="clip0_16772_17156">
<rect width="29" height="30" fill="white"/>
</clipPath>
</defs>
</svg>
