<svg width="30" height="29" viewBox="0 0 30 29" fill="none" xmlns="http://www.w3.org/2000/svg">
<path d="M23.9949 5.56641H15.4988C14.7707 5.56641 14.1804 6.15668 14.1804 6.88477C14.1804 7.61285 14.7707 8.20312 15.4988 8.20312H23.9949C24.723 8.20312 25.3132 7.61285 25.3132 6.88477C25.3132 6.15668 24.723 5.56641 23.9949 5.56641Z" fill="#495D75"/>
<path d="M2.34375 26.651V27.8412C2.34375 28.3216 2.73311 28.7109 3.21346 28.7109H13.7787C14.2591 28.7109 14.6484 28.3216 14.6484 27.8412V26.651C14.6484 26.1706 14.2591 25.7812 13.7787 25.7812H3.21346C2.73311 25.7812 2.34375 26.1706 2.34375 26.651Z" fill="#495D75"/>
<path d="M0 21.9635V23.1537C0 23.6341 0.389355 24.0234 0.869707 24.0234H11.435C11.9153 24.0234 12.3047 23.6341 12.3047 23.1537V21.9635C12.3047 21.4831 11.9153 21.0938 11.435 21.0938H0.869707C0.389355 21.0938 0 21.4831 0 21.9635H0Z" fill="#495D75"/>
<path d="M13.7787 16.4062H3.21346C2.73311 16.4062 2.34375 16.7956 2.34375 17.276V18.4662C2.34375 18.9466 2.73311 19.3359 3.21346 19.3359H13.7787C14.2591 19.3359 14.6484 18.9466 14.6484 18.4662V17.276C14.6484 16.7956 14.2591 16.4062 13.7787 16.4062Z" fill="#495D75"/>
<path d="M18.5199 14.7843C18.4582 15.1112 18.5375 15.4158 18.7217 15.5603C18.7938 15.6169 18.8748 15.6722 18.9616 15.7265V14.0723C18.7057 14.2512 18.5664 14.5376 18.5199 14.7843Z" fill="#495D75"/>
<path d="M20.4265 17.957V20.4454C20.8755 20.2031 21.1422 19.7557 21.2135 19.3316C21.2645 19.0286 21.2853 18.3013 20.4265 17.957Z" fill="#495D75"/>
<path d="M29.966 20.2108C29.7027 17.8602 28.9328 15.5492 27.7395 13.5277C26.9476 12.1862 25.9929 10.9942 24.8898 9.96094H14.612C13.1993 11.2883 12.0239 12.8783 11.1526 14.6484H13.7695C15.2234 14.6484 16.4062 15.8313 16.4062 17.2852V18.457C16.4062 19.8119 15.379 20.9308 14.0625 21.0771V24.0401C15.2827 24.1757 16.254 25.147 16.3896 26.3672H24.4265C26.0138 26.3672 27.5315 25.6881 28.5903 24.5041C29.6389 23.3315 30.1402 21.7667 29.966 20.2108ZM22.6581 19.5746C22.5463 20.2395 22.2117 20.8565 21.7161 21.3118C21.3454 21.6524 20.9077 21.8855 20.4265 22.0033V22.5586C20.4265 22.9631 20.0986 23.291 19.6941 23.291C19.2896 23.291 18.9617 22.9631 18.9617 22.5586V22.0717C18.3481 22.0211 17.8431 21.8592 17.1249 21.3894C16.7864 21.1679 16.6916 20.7139 16.913 20.3754C17.1344 20.037 17.5883 19.942 17.9269 20.1635C18.3421 20.4351 18.6073 20.5511 18.9617 20.5982V17.3806C18.4758 17.1588 18.1141 16.9457 17.8177 16.7133C17.1988 16.2278 16.9162 15.3848 17.0805 14.5134C17.2596 13.563 17.9209 12.8069 18.8063 12.5402C18.8587 12.5244 18.9105 12.51 18.9617 12.4966V12.0117C18.9617 11.6072 19.2896 11.2793 19.6942 11.2793C20.0987 11.2793 20.4266 11.6072 20.4266 12.0117V12.4154C21.1614 12.5382 21.6802 12.8986 21.9304 13.1858C22.1962 13.4907 22.1644 13.9534 21.8594 14.2191C21.5559 14.4836 21.0962 14.4534 20.8299 14.1524C20.8125 14.1347 20.6809 14.0071 20.4266 13.9195V16.398C20.565 16.4496 20.7033 16.4994 20.839 16.5473C22.1738 17.0193 22.8879 18.2075 22.6581 19.5746Z" fill="#495D75"/>
<path d="M16.1639 3.80854H23.3298C23.9726 3.19465 24.4539 2.43563 24.735 1.60025C24.9595 0.933399 24.3376 0.293086 23.6598 0.481934C22.4984 0.80543 21.2415 0.678633 20.155 0.101602C19.9 -0.0338672 19.5936 -0.0338672 19.3386 0.101602C18.2522 0.678691 16.9952 0.805488 15.8339 0.481934C15.156 0.293145 14.5341 0.933399 14.7586 1.60025C15.0398 2.43563 15.521 3.19465 16.1639 3.80854Z" fill="#495D75"/>
</svg>
