<svg width="30" height="30" viewBox="0 0 30 30" fill="none" xmlns="http://www.w3.org/2000/svg">
<g clip-path="url(#clip0_16699_18150)">
<path d="M22.3647 20.0594H27.6924V17.5742H22.0563C22.2459 18.3739 22.3517 19.2056 22.3647 20.0594Z" fill="#495D75"/>
<path d="M22.1349 22.5439C21.9581 23.4115 21.6833 24.2438 21.3232 25.0292H29.4675V22.5439H22.1349Z" fill="#495D75"/>
<path d="M16.9708 29.9999H27.6924V27.5146H19.7749C18.9825 28.4869 18.0351 29.3278 16.9708 29.9999Z" fill="#495D75"/>
<path d="M15.9 5.22598L22.7167 11.3609H20.5918V13.1361H25.9172V7.81065H24.1421V10.2556L16.4077 3.29473L8.37171 5.08047L1.59768 0L0.532593 1.42012L7.95975 6.99053L15.9 5.22598Z" fill="#495D75"/>
<path d="M20.5918 20.2369C20.5918 14.8535 16.212 10.4736 10.8285 10.4736C-2.10606 10.9645 -2.10257 29.5114 10.8286 30.0003C16.2121 30.0003 20.5918 25.6204 20.5918 20.2369ZM13.4912 17.5742H10.8285C9.65258 17.6191 9.65288 19.3048 10.8285 19.3494C13.8302 19.4059 14.4952 23.4943 11.7161 24.5222V26.45H9.94093V24.6748H8.16578V22.8997H10.8285C12.0044 22.8548 12.0041 21.1691 10.8285 21.1245C7.82684 21.068 7.16175 16.9795 9.94093 15.9517V14.0239H11.7161V15.7991H13.4912V17.5742Z" fill="#495D75"/>
</g>
<defs>
<clipPath id="clip0_16699_18150">
<rect width="30" height="30" fill="white"/>
</clipPath>
</defs>
</svg>
