<svg width="30" height="30" viewBox="0 0 30 30" fill="none" xmlns="http://www.w3.org/2000/svg">
<path d="M2.8125 17.8125H9.84375V22.5H2.8125V17.8125Z" fill="#495D75"/>
<path d="M10.7812 23.4375H17.8125V28.125H10.7812V23.4375Z" fill="#495D75"/>
<path d="M10.7812 17.8125H17.8125V22.5H10.7812V17.8125Z" fill="#495D75"/>
<path d="M2.8125 23.4375H9.84375V28.125H2.8125V23.4375Z" fill="#495D75"/>
<path d="M4.6875 12.1875H11.25V16.875H4.6875V12.1875Z" fill="#495D75"/>
<path d="M4.6875 6.5625H11.25V11.25H4.6875V6.5625Z" fill="#495D75"/>
<path d="M15.9375 2.81256C13.0911 2.80385 10.3328 3.79982 8.14862 5.62506H9.71753C11.5598 4.39864 13.7244 3.74612 15.9375 3.75006C22.1407 3.75006 27.1875 8.79679 27.1875 15.0001C27.1873 17.4943 26.3585 19.9179 24.8313 21.8899C23.304 23.8619 21.1649 25.2707 18.75 25.8948V26.8616C21.4197 26.2284 23.7977 24.7129 25.4991 22.5602C27.2004 20.4076 28.1257 17.7439 28.125 15.0001C28.125 8.27988 22.6577 2.81256 15.9375 2.81256Z" fill="#495D75"/>
<path d="M18.75 23.4375V24.9237C20.9096 24.3109 22.8104 23.0103 24.1639 21.2194C25.5175 19.4285 26.2499 17.2449 26.25 15C26.25 9.31366 21.6239 4.68751 15.9375 4.68751C14.4522 4.68529 12.9841 5.00513 11.6343 5.62501H13.125V6.56251H12.1875V11.25H13.125V12.1875H12.1875V16.875H19.6875V17.8125H18.75V22.5H19.6875V23.4375H18.75ZM24.375 14.5313H25.3125V15.4688H24.375V14.5313ZM23.8221 9.90657L24.2908 10.7184L23.479 11.1872L23.0103 10.3753L23.8221 9.90657ZM23.479 18.8128L24.2908 19.2816L23.8221 20.0934L23.0103 19.6247L23.479 18.8128ZM20.2191 6.64671L21.031 7.11546L20.5622 7.92728L19.7503 7.45853L20.2191 6.64671ZM15.4688 5.62501H16.4063V6.56251H15.4688V5.62501ZM16.1719 15.4059C16.1006 15.4471 16.0198 15.4687 15.9375 15.4687C15.8552 15.4688 15.7744 15.4471 15.7032 15.406C15.6319 15.3648 15.5727 15.3056 15.5316 15.2344C15.4904 15.1631 15.4688 15.0823 15.4688 15V7.96876H16.4063V14.1881L20.5746 11.7816L21.0433 12.5934L16.1719 15.4059Z" fill="#495D75"/>
</svg>
