<svg width="31" height="30" viewBox="0 0 31 30" fill="none" xmlns="http://www.w3.org/2000/svg">
<path d="M6.08203 0.878906C6.08203 0.39375 5.68828 0 5.20312 0C4.71797 0 4.32422 0.39375 4.32422 0.878906V1.75781H6.08203V0.878906Z" fill="#495D75"/>
<path d="M11.3555 0.878906C11.3555 0.39375 10.9617 0 10.4766 0C9.99141 0 9.59766 0.39375 9.59766 0.878906V1.75781H11.3555V0.878906Z" fill="#495D75"/>
<path d="M16.6289 0.878906C16.6289 0.39375 16.2352 0 15.75 0C15.2648 0 14.8711 0.39375 14.8711 0.878906V1.75781H16.6289V0.878906Z" fill="#495D75"/>
<path d="M21.9023 0.878906C21.9023 0.39375 21.5086 0 21.0234 0C20.5383 0 20.1445 0.39375 20.1445 0.878906V1.75781H21.9023V0.878906Z" fill="#495D75"/>
<path d="M27.1758 0.878906C27.1758 0.39375 26.782 0 26.2969 0C25.8117 0 25.418 0.39375 25.418 0.878906V1.75781H27.1758V0.878906Z" fill="#495D75"/>
<path d="M28.1133 1.75781H27.1758V4.39453C27.1758 4.87969 26.782 5.27344 26.2969 5.27344C25.8117 5.27344 25.418 4.87969 25.418 4.39453V1.75781H21.9023V4.39453C21.9023 4.87969 21.5086 5.27344 21.0234 5.27344C20.5383 5.27344 20.1445 4.87969 20.1445 4.39453V1.75781H16.6289V4.39453C16.6289 4.87969 16.2352 5.27344 15.75 5.27344C15.2648 5.27344 14.8711 4.87969 14.8711 4.39453V1.75781H11.3555V4.39453C11.3555 4.87969 10.9617 5.27344 10.4766 5.27344C9.99141 5.27344 9.59766 4.87969 9.59766 4.39453V1.75781H6.08203V4.39453C6.08203 4.87969 5.68828 5.27344 5.20312 5.27344C4.71797 5.27344 4.32422 4.87969 4.32422 4.39453V1.75781H3.38672C1.93301 1.75781 0.75 2.94082 0.75 4.39453V8.78906H30.75V4.39453C30.75 2.94082 29.567 1.75781 28.1133 1.75781Z" fill="#495D75"/>
<path d="M0.75 27.3633C0.75 28.817 1.93301 30 3.38672 30H28.1133C29.567 30 30.75 28.817 30.75 27.3633V10.5469H0.75V27.3633ZM13.9336 14.9414H17.4492C17.7199 14.9414 17.9754 15.0661 18.142 15.2794C18.3086 15.4928 18.3676 15.7709 18.3019 16.0335L16.5441 23.0647C16.4443 23.464 16.0859 23.7306 15.6921 23.7306C15.6215 23.7306 15.5498 23.7221 15.4783 23.7042C15.0074 23.5865 14.721 23.1093 14.8388 22.6384L16.3235 16.6992H13.9336C13.4482 16.6992 13.0547 16.3057 13.0547 15.8203C13.0547 15.3349 13.4482 14.9414 13.9336 14.9414Z" fill="#495D75"/>
</svg>
