<svg width="36" height="30" viewBox="0 0 36 30" fill="none" xmlns="http://www.w3.org/2000/svg">
<path d="M17.8963 14.672C21.2318 14.672 23.9361 11.3875 23.9361 7.33602C23.9361 3.28446 23.0481 0 17.8963 0C12.7443 0 11.8564 3.28446 11.8564 7.33602C11.8565 11.3875 14.5607 14.672 17.8963 14.672Z" fill="#495D75"/>
<path d="M29.2913 25.5775C29.1795 18.5195 28.2577 16.5084 21.2041 15.2354C21.2041 15.2354 20.211 16.5005 17.8967 16.5005C15.5824 16.5005 14.5895 15.2354 14.5895 15.2354C7.61274 16.4944 6.63474 18.4758 6.5062 25.3481C6.49574 25.9093 6.49092 25.9387 6.48901 25.8736C6.48938 25.9957 6.48992 26.2214 6.48992 26.6151C6.48992 26.6151 8.16929 30.0005 17.8968 30.0005C27.6243 30.0005 29.3038 26.6151 29.3038 26.6151C29.3038 26.3622 29.304 26.1862 29.3042 26.0667C29.3023 26.1069 29.2984 26.0288 29.2913 25.5775Z" fill="#495D75"/>
<path d="M26.279 13.3616C28.9882 13.3616 31.1844 10.6941 31.1844 7.40351C31.1844 4.11287 30.4633 1.44531 26.279 1.44531C25.5752 1.44531 24.9695 1.52104 24.4485 1.6624C25.415 3.44405 25.5474 5.60805 25.5474 7.33542C25.5474 9.29125 25.0173 11.1585 24.0409 12.7046C24.712 13.1237 25.4724 13.3616 26.279 13.3616Z" fill="#495D75"/>
<path d="M35.5325 22.219C35.4416 16.4867 34.6931 14.8533 28.9642 13.8193C28.9642 13.8193 28.1577 14.847 26.2781 14.847C26.2003 14.847 26.125 14.8446 26.0508 14.8412C27.2451 15.3797 28.3315 16.1294 29.1316 17.2265C30.5148 19.1232 30.8328 21.671 30.8984 25.414C34.7527 24.6524 35.5426 23.0619 35.5426 23.0619C35.5426 22.8546 35.5426 22.7125 35.543 22.6153C35.5414 22.6495 35.5383 22.5882 35.5325 22.219Z" fill="#495D75"/>
<path d="M9.51457 13.3625C10.3212 13.3625 11.0815 13.1246 11.7529 12.7056C10.7765 11.1595 10.2463 9.29222 10.2463 7.3364C10.2463 5.60894 10.3788 3.44493 11.345 1.66338C10.8241 1.52202 10.2186 1.44629 9.51457 1.44629C5.33029 1.44629 4.60938 4.11384 4.60938 7.40449C4.60938 10.695 6.80556 13.3625 9.51457 13.3625Z" fill="#495D75"/>
<path d="M9.74203 14.8412C9.66803 14.8446 9.59266 14.847 9.51476 14.847C7.63511 14.847 6.82866 13.8193 6.82866 13.8193C1.09991 14.8533 0.351182 16.4866 0.260455 22.219C0.254545 22.5883 0.251545 22.6495 0.25 22.6152C0.250182 22.7124 0.250364 22.8545 0.250364 23.0618C0.250364 23.0618 1.04037 24.6523 4.89438 25.4139C4.96029 21.671 5.27811 19.1232 6.66147 17.2264C7.46148 16.1295 8.54775 15.3797 9.74203 14.8412Z" fill="#495D75"/>
</svg>
