<svg width="23" height="21" viewBox="0 0 23 21" fill="none" xmlns="http://www.w3.org/2000/svg">
<g clip-path="url(#clip0_16421_10817)">
<path d="M21.0833 0H1.91667C1.40833 0 0.920823 0.207429 0.561379 0.576656C0.201934 0.945883 0 1.44666 0 1.96883L0 3.28056C0 3.80272 0.201934 4.3035 0.561379 4.67273C0.920823 5.04196 1.40833 5.24939 1.91667 5.24939H21.0833C21.5917 5.24939 22.0792 5.04196 22.4386 4.67273C22.7981 4.3035 23 3.80272 23 3.28056V1.96883C23 1.44666 22.7981 0.945883 22.4386 0.576656C22.0792 0.207429 21.5917 0 21.0833 0Z" fill="#B3CEE2"/>
<path d="M21.0833 7.87524H1.91667C1.40833 7.87524 0.920823 8.08267 0.561379 8.4519C0.201934 8.82113 0 9.32191 0 9.84407L0 11.1558C0 11.678 0.201934 12.1787 0.561379 12.548C0.920823 12.9172 1.40833 13.1246 1.91667 13.1246H21.0833C21.5917 13.1246 22.0792 12.9172 22.4386 12.548C22.7981 12.1787 23 11.678 23 11.1558V9.84407C23 9.32191 22.7981 8.82113 22.4386 8.4519C22.0792 8.08267 21.5917 7.87524 21.0833 7.87524Z" fill="#B3CEE2"/>
<path d="M21.0833 15.7507H1.91667C1.40833 15.7507 0.920823 15.9582 0.561379 16.3274C0.201934 16.6966 0 17.1974 0 17.7196L0 19.0313C0 19.5535 0.201934 20.0542 0.561379 20.4235C0.920823 20.7927 1.40833 21.0001 1.91667 21.0001H21.0833C21.5917 21.0001 22.0792 20.7927 22.4386 20.4235C22.7981 20.0542 23 19.5535 23 19.0313V17.7196C23 17.1974 22.7981 16.6966 22.4386 16.3274C22.0792 15.9582 21.5917 15.7507 21.0833 15.7507Z" fill="#B3CEE2"/>
</g>
<defs>
<clipPath id="clip0_16421_10817">
<rect width="23" height="21" fill="white"/>
</clipPath>
</defs>
</svg>
