<svg width="30" height="30" viewBox="0 0 30 30" fill="none" xmlns="http://www.w3.org/2000/svg">
<path d="M27.3175 13.805C27.0965 13.8047 26.8827 13.7264 26.7137 13.584C26.5447 13.4415 26.4314 13.244 26.3938 13.0262C26.2638 12.2668 26.0569 11.5225 25.7763 10.805C25.7315 10.6901 25.7099 10.5675 25.7125 10.4442C25.7152 10.3209 25.7421 10.1994 25.7917 10.0865C25.8413 9.97363 25.9127 9.87163 26.0017 9.78633C26.0907 9.70103 26.1957 9.63411 26.3106 9.58938C26.5427 9.49904 26.8011 9.50458 27.0291 9.6048C27.142 9.65442 27.244 9.72579 27.3293 9.81483C27.4146 9.90387 27.4815 10.0088 27.5263 10.1237C27.8507 10.9594 28.0911 11.8254 28.2438 12.7087C28.2646 12.8301 28.2612 12.9545 28.234 13.0746C28.2067 13.1947 28.1561 13.3082 28.0849 13.4088C28.0138 13.5093 27.9235 13.5948 27.8193 13.6604C27.715 13.7261 27.5989 13.7705 27.4775 13.7913C27.4246 13.8002 27.3711 13.8048 27.3175 13.805ZM25.5188 9.18C25.3616 9.18029 25.2069 9.14107 25.0688 9.06593C24.9308 8.99079 24.8138 8.88215 24.7288 8.75C24.3113 8.10126 23.8301 7.49577 23.2925 6.9425C23.2054 6.85447 23.1366 6.75004 23.09 6.63526C23.0435 6.52047 23.0202 6.39761 23.0214 6.27376C23.0226 6.14991 23.0484 6.02753 23.0972 5.91369C23.146 5.79985 23.2169 5.69681 23.3057 5.61052C23.3946 5.52423 23.4996 5.4564 23.6148 5.41095C23.7301 5.3655 23.8531 5.34333 23.977 5.34573C24.1008 5.34812 24.2229 5.37502 24.3363 5.42489C24.4497 5.47476 24.552 5.54659 24.6375 5.63625C25.2619 6.27882 25.8209 6.98186 26.3063 7.735C26.3974 7.87655 26.4487 8.04003 26.4549 8.20827C26.461 8.37651 26.4217 8.5433 26.3412 8.69112C26.2606 8.83895 26.1417 8.96235 25.997 9.04838C25.8523 9.1344 25.6871 9.17986 25.5188 9.18ZM22.0538 5.61625C21.8653 5.61674 21.6813 5.5596 21.5263 5.4525C20.8886 5.01836 20.21 4.64783 19.5 4.34625C19.3786 4.30412 19.2672 4.23747 19.1726 4.15046C19.078 4.06345 19.0024 3.95793 18.9503 3.84045C18.8982 3.72297 18.8709 3.59604 18.8699 3.46754C18.869 3.33904 18.8944 3.21171 18.9448 3.09347C18.9951 2.97523 19.0692 2.8686 19.1624 2.78019C19.2557 2.69179 19.3661 2.6235 19.4869 2.57956C19.6076 2.53563 19.7361 2.517 19.8644 2.52481C19.9927 2.53263 20.118 2.56673 20.2325 2.625C21.0568 2.97384 21.844 3.40432 22.5825 3.91C22.7477 4.02304 22.8724 4.186 22.9384 4.37504C23.0043 4.56407 23.008 4.76924 22.9489 4.96051C22.8898 5.15179 22.771 5.31912 22.6099 5.43801C22.4488 5.55691 22.2539 5.62112 22.0538 5.62125V5.61625ZM17.4825 3.68375C17.4204 3.68339 17.3585 3.67753 17.2975 3.66625C16.5411 3.51457 15.7715 3.43795 15 3.4375C14.7514 3.4375 14.5129 3.33873 14.3371 3.16291C14.1613 2.9871 14.0625 2.74864 14.0625 2.5C14.0625 2.25136 14.1613 2.0129 14.3371 1.83709C14.5129 1.66127 14.7514 1.5625 15 1.5625C15.8953 1.56237 16.7885 1.65113 17.6663 1.8275C17.8938 1.8737 18.0961 2.00268 18.234 2.18947C18.3718 2.37625 18.4355 2.60756 18.4127 2.83861C18.3898 3.06965 18.282 3.28398 18.1102 3.44011C17.9383 3.59624 17.7147 3.68306 17.4825 3.68375Z" fill="#495D75"/>
<path d="M15 28.4375C11.4362 28.4375 8.01827 27.0218 5.49825 24.5018C2.97823 21.9817 1.5625 18.5638 1.5625 15C1.5625 11.4362 2.97823 8.01827 5.49825 5.49825C8.01827 2.97823 11.4362 1.5625 15 1.5625C15.2486 1.5625 15.4871 1.66127 15.6629 1.83709C15.8387 2.0129 15.9375 2.25136 15.9375 2.5C15.9375 2.74864 15.8387 2.9871 15.6629 3.16291C15.4871 3.33873 15.2486 3.4375 15 3.4375C12.7623 3.43665 10.5725 4.08512 8.69605 5.30426C6.81964 6.52341 5.3373 8.26084 4.42884 10.3058C3.52038 12.3508 3.22483 14.6154 3.57803 16.8251C3.93124 19.0347 4.91802 21.0944 6.4187 22.7543C7.91938 24.4141 9.86946 25.6029 12.0324 26.1764C14.1954 26.7498 16.4783 26.6833 18.6042 25.985C20.7301 25.2866 22.6077 23.9864 24.0092 22.242C25.4107 20.4976 26.276 18.3839 26.5 16.1575C26.5313 15.9158 26.6556 15.6957 26.8464 15.5441C27.0373 15.3924 27.2797 15.3211 27.5223 15.3451C27.7648 15.3692 27.9885 15.4868 28.1458 15.673C28.3031 15.8592 28.3818 16.0993 28.365 16.3425C28.044 19.661 26.4959 22.7402 24.0239 24.9773C21.5519 27.2144 18.334 28.4483 15 28.4375Z" fill="#495D75"/>
<path d="M15 5C13.0222 5 11.0888 5.58649 9.4443 6.6853C7.79981 7.78412 6.51809 9.3459 5.76121 11.1732C5.00433 13.0004 4.8063 15.0111 5.19215 16.9509C5.578 18.8907 6.53041 20.6725 7.92894 22.0711C9.32746 23.4696 11.1093 24.422 13.0491 24.8079C14.9889 25.1937 16.9996 24.9957 18.8268 24.2388C20.6541 23.4819 22.2159 22.2002 23.3147 20.5557C24.4135 18.9112 25 16.9778 25 15C25 12.3478 23.9464 9.8043 22.0711 7.92893C20.1957 6.05357 17.6522 5 15 5ZM20.75 19.3125C20.6008 19.5114 20.3787 19.6429 20.1326 19.6781C19.8864 19.7132 19.6364 19.6492 19.4375 19.5L14.4375 15.75C14.3203 15.6634 14.2252 15.5504 14.16 15.42C14.0948 15.2897 14.0614 15.1457 14.0625 15V8.75C14.0625 8.50136 14.1613 8.2629 14.3371 8.08709C14.5129 7.91127 14.7514 7.8125 15 7.8125C15.2486 7.8125 15.4871 7.91127 15.6629 8.08709C15.8387 8.2629 15.9375 8.50136 15.9375 8.75V14.525L20.5625 18C20.661 18.0739 20.744 18.1664 20.8067 18.2724C20.8694 18.3783 20.9107 18.4955 20.9281 18.6174C20.9455 18.7393 20.9387 18.8634 20.9082 18.9827C20.8776 19.1019 20.8239 19.214 20.75 19.3125Z" fill="#495D75"/>
</svg>
