<svg width="13" height="13" viewBox="0 0 13 13" fill="none" xmlns="http://www.w3.org/2000/svg">
<path d="M6.5 9.625C6.67708 9.625 6.82562 9.565 6.94562 9.445C7.06562 9.325 7.12542 9.17667 7.125 9V6.48437C7.125 6.30729 7.065 6.16146 6.945 6.04687C6.825 5.93229 6.67667 5.875 6.5 5.875C6.32292 5.875 6.17437 5.935 6.05437 6.055C5.93437 6.175 5.87458 6.32333 5.875 6.5V9.01562C5.875 9.19271 5.935 9.33854 6.055 9.45312C6.175 9.56771 6.32333 9.625 6.5 9.625ZM6.5 4.625C6.67708 4.625 6.82562 4.565 6.94562 4.445C7.06562 4.325 7.12542 4.17667 7.125 4C7.125 3.82292 7.065 3.67437 6.945 3.55437C6.825 3.43437 6.67667 3.37458 6.5 3.375C6.32292 3.375 6.17437 3.435 6.05437 3.555C5.93437 3.675 5.87458 3.82333 5.875 4C5.875 4.17708 5.935 4.32562 6.055 4.44562C6.175 4.56562 6.32333 4.62542 6.5 4.625ZM6.5 12.75C5.63542 12.75 4.82292 12.5858 4.0625 12.2575C3.30208 11.9292 2.64062 11.484 2.07812 10.9219C1.51563 10.3594 1.07042 9.69792 0.7425 8.9375C0.414583 8.17708 0.250417 7.36458 0.25 6.5C0.25 5.63542 0.414167 4.82292 0.7425 4.0625C1.07083 3.30208 1.51604 2.64062 2.07812 2.07812C2.64062 1.51563 3.30208 1.07042 4.0625 0.7425C4.82292 0.414583 5.63542 0.250417 6.5 0.25C7.36458 0.25 8.17708 0.414167 8.9375 0.7425C9.69792 1.07083 10.3594 1.51604 10.9219 2.07812C11.4844 2.64062 11.9298 3.30208 12.2581 4.0625C12.5865 4.82292 12.7504 5.63542 12.75 6.5C12.75 7.36458 12.5858 8.17708 12.2575 8.9375C11.9292 9.69792 11.484 10.3594 10.9219 10.9219C10.3594 11.4844 9.69792 11.9298 8.9375 12.2581C8.17708 12.5865 7.36458 12.7504 6.5 12.75ZM6.5 11.5C7.88542 11.5 9.06521 11.0131 10.0394 10.0394C11.0135 9.06562 11.5004 7.88583 11.5 6.5C11.5 5.11458 11.0131 3.93479 10.0394 2.96062C9.06562 1.98646 7.88583 1.49958 6.5 1.5C5.11458 1.5 3.93479 1.98687 2.96062 2.96062C1.98646 3.93437 1.49958 5.11417 1.5 6.5C1.5 7.88542 1.98687 9.06521 2.96062 10.0394C3.93437 11.0135 5.11417 11.5004 6.5 11.5Z" fill="#495D75"/>
</svg>
