<svg width="167" height="46" viewBox="0 0 167 46" fill="none" xmlns="http://www.w3.org/2000/svg">
<path d="M21.6045 40.3278V24.598L27.1692 22.3826L24.4414 39.1093L21.6045 40.3278Z" fill="#F0F9FF"/>
<path d="M19.6404 24.598L13.8574 22.3826L16.5853 38.9985L19.6404 40.3278V24.598Z" fill="#F0F9FF"/>
<path d="M2.83693 9.31161L0 4.21606L20.6223 12.3025L41.0264 4.21606L38.2986 9.42238L20.404 16.2903L2.83693 9.31161Z" fill="#F0F9FF"/>
<path d="M6.98368 17.2874L4.25586 12.1918L20.5137 18.7274L36.9896 12.0811L34.1527 17.2874L20.5137 22.6045L6.98368 17.2874Z" fill="#F0F9FF"/>
<path d="M59.8652 18.2647V15.4276H73.2644V18.2647H68.2696V31.7028H64.86V18.2647H59.8652ZM74.5151 15.4276H78.3787L82.0989 22.4368H82.2582L85.9784 15.4276H89.8421L83.8913 25.9493V31.7028H80.4658V25.9493L74.5151 15.4276ZM105.135 21.1255H101.646C101.582 20.6752 101.452 20.2751 101.256 19.9255C101.059 19.5706 100.807 19.2686 100.499 19.0196C100.191 18.7706 99.8349 18.5799 99.4314 18.4475C99.0331 18.3149 98.6003 18.2488 98.1329 18.2488C97.2884 18.2488 96.5529 18.458 95.9263 18.8765C95.2995 19.2898 94.8136 19.8937 94.4684 20.6884C94.1232 21.4779 93.9507 22.4368 93.9507 23.5651C93.9507 24.7255 94.1232 25.7003 94.4684 26.4896C94.819 27.2791 95.3075 27.8751 95.9342 28.2777C96.5609 28.6803 97.2858 28.8816 98.109 28.8816C98.571 28.8816 98.9986 28.8207 99.3915 28.6989C99.7898 28.577 100.143 28.3995 100.451 28.1664C100.759 27.9281 101.014 27.6393 101.216 27.3002C101.423 26.9612 101.566 26.5744 101.646 26.14L105.135 26.1559C105.045 26.9029 104.819 27.6235 104.458 28.3174C104.102 29.0062 103.622 29.6233 103.016 30.169C102.416 30.7094 101.699 31.1386 100.865 31.4564C100.037 31.7691 99.0994 31.9253 98.0533 31.9253C96.598 31.9253 95.2969 31.5969 94.1498 30.9399C93.008 30.283 92.1051 29.3319 91.4413 28.0869C90.7828 26.842 90.4534 25.3347 90.4534 23.5651C90.4534 21.7904 90.788 20.2805 91.4571 19.0355C92.1264 17.7905 93.0345 16.8422 94.1816 16.1905C95.3288 15.5335 96.6193 15.2051 98.0533 15.2051C98.9986 15.2051 99.8748 15.3375 100.682 15.6024C101.495 15.8674 102.214 16.2541 102.841 16.7627C103.468 17.266 103.977 17.8831 104.37 18.6143C104.769 19.3455 105.024 20.1825 105.135 21.1255ZM122.601 23.5651C122.601 25.34 122.264 26.8499 121.589 28.0949C120.92 29.3399 120.007 30.2908 118.849 30.9479C117.697 31.5995 116.401 31.9253 114.962 31.9253C113.512 31.9253 112.211 31.5969 111.058 30.9399C109.906 30.283 108.995 29.3319 108.326 28.0869C107.657 26.842 107.322 25.3347 107.322 23.5651C107.322 21.7904 107.657 20.2805 108.326 19.0355C108.995 17.7905 109.906 16.8422 111.058 16.1905C112.211 15.5335 113.512 15.2051 114.962 15.2051C116.401 15.2051 117.697 15.5335 118.849 16.1905C120.007 16.8422 120.92 17.7905 121.589 19.0355C122.264 20.2805 122.601 21.7904 122.601 23.5651ZM119.104 23.5651C119.104 22.4155 118.931 21.446 118.586 20.6567C118.246 19.8672 117.766 19.2686 117.144 18.8607C116.523 18.4527 115.795 18.2488 114.962 18.2488C114.128 18.2488 113.4 18.4527 112.779 18.8607C112.157 19.2686 111.674 19.8672 111.329 20.6567C110.989 21.446 110.819 22.4155 110.819 23.5651C110.819 24.7149 110.989 25.6844 111.329 26.4737C111.674 27.2632 112.157 27.8618 112.779 28.2697C113.4 28.6777 114.128 28.8816 114.962 28.8816C115.795 28.8816 116.523 28.6777 117.144 28.2697C117.766 27.8618 118.246 27.2632 118.586 26.4737C118.931 25.6844 119.104 24.7149 119.104 23.5651ZM140.149 23.5651C140.149 25.34 139.811 26.8499 139.137 28.0949C138.468 29.3399 137.554 30.2908 136.396 30.9479C135.244 31.5995 133.949 31.9253 132.509 31.9253C131.059 31.9253 129.758 31.5969 128.606 30.9399C127.453 30.283 126.542 29.3319 125.873 28.0869C125.204 26.842 124.87 25.3347 124.87 23.5651C124.87 21.7904 125.204 20.2805 125.873 19.0355C126.542 17.7905 127.453 16.8422 128.606 16.1905C129.758 15.5335 131.059 15.2051 132.509 15.2051C133.949 15.2051 135.244 15.5335 136.396 16.1905C137.554 16.8422 138.468 17.7905 139.137 19.0355C139.811 20.2805 140.149 21.7904 140.149 23.5651ZM136.652 23.5651C136.652 22.4155 136.479 21.446 136.134 20.6567C135.793 19.8672 135.313 19.2686 134.692 18.8607C134.071 18.4527 133.343 18.2488 132.509 18.2488C131.676 18.2488 130.948 18.4527 130.326 18.8607C129.705 19.2686 129.222 19.8672 128.876 20.6567C128.536 21.446 128.367 22.4155 128.367 23.5651C128.367 24.7149 128.536 25.6844 128.876 26.4737C129.222 27.2632 129.705 27.8618 130.326 28.2697C130.948 28.6777 131.676 28.8816 132.509 28.8816C133.343 28.8816 134.071 28.6777 134.692 28.2697C135.313 27.8618 135.793 27.2632 136.134 26.4737C136.479 25.6844 136.652 24.7149 136.652 23.5651ZM156.35 15.4276V31.7028H153.371L146.273 21.4593H146.154V31.7028H142.704V15.4276H145.731L152.774 25.6631H152.917V15.4276H156.35Z" fill="#F0F9FF"/>
</svg>
