<svg width="22" height="22" viewBox="0 0 22 22" fill="none" xmlns="http://www.w3.org/2000/svg">
<g clip-path="url(#clip0_16050_18277)">
<path d="M21.7312 20.4355L15.475 14.1794C16.6868 12.6825 17.4165 10.7804 17.4165 8.70875C17.4165 3.9073 13.5097 0.000488281 8.70822 0.000488281C3.90677 0.000488281 0 3.90725 0 8.70871C0 13.5102 3.90681 17.417 8.70826 17.417C10.7799 17.417 12.682 16.6873 14.1789 15.4755L20.4351 21.7317C20.6138 21.9104 20.8484 22.0003 21.0831 22.0003C21.3178 22.0003 21.5525 21.9104 21.7312 21.7317C22.0896 21.3733 22.0896 20.7939 21.7312 20.4355ZM8.70826 15.5836C4.91695 15.5836 1.83333 12.5 1.83333 8.70871C1.83333 4.9174 4.91695 1.83378 8.70826 1.83378C12.4996 1.83378 15.5832 4.9174 15.5832 8.70871C15.5832 12.5 12.4995 15.5836 8.70826 15.5836Z" fill="#F0F9FF"/>
</g>
<defs>
<clipPath id="clip0_16050_18277">
<rect width="22" height="22" fill="white"/>
</clipPath>
</defs>
</svg>
