<svg width="31" height="30" viewBox="0 0 31 30" fill="none" xmlns="http://www.w3.org/2000/svg">
<g clip-path="url(#clip0_16772_17185)">
<path d="M24.4949 6.21094H15.9988C15.2707 6.21094 14.6804 6.80121 14.6804 7.5293C14.6804 8.25738 15.2707 8.84766 15.9988 8.84766H24.4949C25.223 8.84766 25.8132 8.25738 25.8132 7.5293C25.8132 6.80121 25.223 6.21094 24.4949 6.21094Z" fill="#495D75"/>
<path d="M2.84375 27.2955V28.4858C2.84375 28.9661 3.23311 29.3555 3.71346 29.3555H14.2787C14.7591 29.3555 15.1484 28.9661 15.1484 28.4858V27.2955C15.1484 26.8151 14.7591 26.4258 14.2787 26.4258H3.71346C3.23311 26.4258 2.84375 26.8151 2.84375 27.2955Z" fill="#495D75"/>
<path d="M0.5 22.608V23.7983C0.5 24.2786 0.889355 24.668 1.36971 24.668H11.935C12.4153 24.668 12.8047 24.2786 12.8047 23.7983V22.608C12.8047 22.1276 12.4153 21.7383 11.935 21.7383H1.36971C0.889355 21.7383 0.5 22.1276 0.5 22.608H0.5Z" fill="#495D75"/>
<path d="M14.2787 17.0508H3.71346C3.23311 17.0508 2.84375 17.4401 2.84375 17.9205V19.1108C2.84375 19.5911 3.23311 19.9805 3.71346 19.9805H14.2787C14.7591 19.9805 15.1484 19.5911 15.1484 19.1108V17.9205C15.1484 17.4401 14.7591 17.0508 14.2787 17.0508Z" fill="#495D75"/>
<path d="M19.0199 15.4288C18.9582 15.7557 19.0375 16.0604 19.2217 16.2048C19.2938 16.2614 19.3748 16.3167 19.4616 16.371V14.7168C19.2057 14.8957 19.0664 15.1821 19.0199 15.4288Z" fill="#495D75"/>
<path d="M20.9265 18.6016V21.09C21.3755 20.8476 21.6422 20.4003 21.7135 19.9761C21.7645 19.6731 21.7853 18.9459 20.9265 18.6016Z" fill="#495D75"/>
<path d="M30.466 20.8553C30.2027 18.5047 29.4328 16.1937 28.2395 14.1722C27.4476 12.8307 26.4929 11.6387 25.3898 10.6055H15.112C13.6993 11.9329 12.5239 13.5228 11.6526 15.293H14.2695C15.7234 15.293 16.9062 16.4758 16.9062 17.9297V19.1016C16.9062 20.4564 15.879 21.5753 14.5625 21.7216V24.6847C15.7827 24.8203 16.754 25.7915 16.8896 27.0118H24.9265C26.5138 27.0118 28.0315 26.3327 29.0903 25.1487C30.1389 23.976 30.6402 22.4112 30.466 20.8553ZM23.1581 20.2191C23.0463 20.884 22.7117 21.501 22.2161 21.9564C21.8454 22.2969 21.4077 22.53 20.9265 22.6478V23.2031C20.9265 23.6076 20.5986 23.9355 20.1941 23.9355C19.7896 23.9355 19.4617 23.6076 19.4617 23.2031V22.7163C18.8481 22.6656 18.3431 22.5037 17.6249 22.0339C17.2864 21.8124 17.1916 21.3585 17.413 21.02C17.6344 20.6815 18.0883 20.5865 18.4269 20.808C18.8421 21.0796 19.1073 21.1956 19.4617 21.2428V18.0251C18.9758 17.8033 18.6141 17.5903 18.3177 17.3578C17.6988 16.8724 17.4162 16.0294 17.5805 15.1579C17.7596 14.2075 18.4209 13.4514 19.3063 13.1847C19.3587 13.1689 19.4105 13.1545 19.4617 13.1412V12.6562C19.4617 12.2518 19.7896 11.9238 20.1942 11.9238C20.5987 11.9238 20.9266 12.2518 20.9266 12.6562V13.06C21.6614 13.1828 22.1802 13.5431 22.4304 13.8303C22.6962 14.1353 22.6644 14.5979 22.3594 14.8637C22.0559 15.1281 21.5962 15.0979 21.3299 14.797C21.3125 14.7792 21.1809 14.6517 20.9266 14.564V17.0426C21.065 17.0941 21.2033 17.1439 21.339 17.1919C22.6738 17.6638 23.3879 18.852 23.1581 20.2191Z" fill="#495D75"/>
<path d="M16.6639 4.45307H23.8298C24.4726 3.83918 24.9539 3.08016 25.235 2.24479C25.4595 1.57793 24.8376 0.937617 24.1598 1.12646C22.9984 1.44996 21.7415 1.32316 20.655 0.746133C20.4 0.610664 20.0936 0.610664 19.8386 0.746133C18.7522 1.32322 17.4952 1.45002 16.3339 1.12646C15.656 0.937676 15.0341 1.57793 15.2586 2.24479C15.5398 3.08016 16.021 3.83918 16.6639 4.45307Z" fill="#495D75"/>
</g>
<defs>
<clipPath id="clip0_16772_17185">
<rect width="30" height="30" fill="white" transform="translate(0.5)"/>
</clipPath>
</defs>
</svg>
