<svg width="35" height="37" viewBox="0 0 35 37" fill="none" xmlns="http://www.w3.org/2000/svg">
<path d="M30.3046 17.6825C29.8773 17.2308 29.1852 17.2308 28.7579 17.6825L26.5704 19.995C26.1432 20.4467 26.1432 21.1783 26.5704 21.63C26.9977 22.0817 27.6898 22.0817 28.1171 21.63L28.3065 21.4297C27.4859 27.6042 22.4696 32.375 16.4062 32.375C9.77219 32.375 4.375 26.6694 4.375 19.6562C4.375 12.6431 9.77219 6.9375 16.4062 6.9375C17.0108 6.9375 17.5 6.41978 17.5 5.78125C17.5 5.14272 17.0108 4.625 16.4062 4.625C8.56628 4.625 2.1875 11.3677 2.1875 19.6562C2.1875 27.9448 8.56628 34.6875 16.4062 34.6875C23.7498 34.6875 29.8104 28.7714 30.5486 21.2105L30.9454 21.63C31.1591 21.8558 31.4389 21.9688 31.7188 21.9688C31.9986 21.9688 32.2784 21.8558 32.4921 21.63C32.9193 21.1783 32.9193 20.4467 32.4921 19.995L30.3046 17.6825Z" fill="#495D75"/>
<path d="M16.4062 10.4062C11.5816 10.4062 7.65625 14.5559 7.65625 19.6562C7.65625 24.7566 11.5816 28.9062 16.4062 28.9062C21.2309 28.9062 25.1562 24.7566 25.1562 19.6562C25.1562 17.5222 24.4624 15.5603 23.3096 13.9934L32.4921 4.28625C32.9193 3.83459 32.9193 3.10291 32.4921 2.65125C32.0648 2.19958 31.3727 2.19958 30.9454 2.65125L21.763 12.3584C20.2808 11.1398 18.4249 10.4062 16.4062 10.4062ZM16.4062 19.0781C18.2156 19.0781 19.6875 20.6341 19.6875 22.5469C19.6875 24.2617 18.5018 25.68 16.9531 25.9572V27.1719C16.9531 27.4914 16.7085 27.75 16.4062 27.75C16.104 27.75 15.8594 27.4914 15.8594 27.1719V25.9572C14.3107 25.68 13.125 24.2617 13.125 22.5469C13.125 22.2273 13.3696 21.9688 13.6719 21.9688C13.9742 21.9688 14.2188 22.2273 14.2188 22.5469C14.2188 23.8223 15.1998 24.8594 16.4062 24.8594C17.6127 24.8594 18.5938 23.8223 18.5938 22.5469C18.5938 21.2715 17.6127 20.2344 16.4062 20.2344C14.5969 20.2344 13.125 18.6784 13.125 16.7656C13.125 15.0508 14.3107 13.6325 15.8594 13.3553V12.1406C15.8594 11.8211 16.104 11.5625 16.4062 11.5625C16.7085 11.5625 16.9531 11.8211 16.9531 12.1406V13.3553C18.5018 13.6325 19.6875 15.0508 19.6875 16.7656C19.6875 17.0852 19.4429 17.3438 19.1406 17.3438C18.8383 17.3438 18.5938 17.0852 18.5938 16.7656C18.5938 15.4902 17.6127 14.4531 16.4062 14.4531C15.1998 14.4531 14.2188 15.4902 14.2188 16.7656C14.2188 18.041 15.1998 19.0781 16.4062 19.0781Z" fill="#495D75"/>
<path d="M30.0781 16.1875C31.5883 16.1875 32.8125 14.8933 32.8125 13.2969C32.8125 11.7004 31.5883 10.4062 30.0781 10.4062C28.568 10.4062 27.3438 11.7004 27.3438 13.2969C27.3438 14.8933 28.568 16.1875 30.0781 16.1875Z" fill="#495D75"/>
<path d="M22.4219 8.09375C23.932 8.09375 25.1562 6.79957 25.1562 5.20312C25.1562 3.60668 23.932 2.3125 22.4219 2.3125C20.9117 2.3125 19.6875 3.60668 19.6875 5.20312C19.6875 6.79957 20.9117 8.09375 22.4219 8.09375Z" fill="#495D75"/>
</svg>
