<svg width="30" height="30" viewBox="0 0 30 30" fill="none" xmlns="http://www.w3.org/2000/svg">
<g clip-path="url(#clip0_16699_18046)">
<path d="M25.6117 4.38827C19.76 -1.46276 10.24 -1.46276 4.38827 4.38827C-1.46276 10.2393 -1.46276 19.7597 4.38827 25.611C7.31408 28.5365 11.1571 29.9994 15 29.9994C18.8429 29.9994 22.6859 28.5365 25.6117 25.611C31.4627 19.76 31.4627 10.2397 25.6117 4.38827ZM21.8593 9.7787C21.8593 10.3195 21.4208 10.7576 20.8804 10.7576C20.3399 10.7576 19.9014 10.3195 19.9014 9.7787V8.79281H11.1919L15.7577 14.3764C16.0528 14.7368 16.0528 15.2539 15.7577 15.6143L11.1919 21.1926H19.9014V20.2207C19.9014 19.6799 20.3399 19.2417 20.8804 19.2417C21.4208 19.2417 21.8593 19.6799 21.8593 20.2207V22.1785C21.8593 22.7193 21.4139 23.1504 20.8735 23.1504H9.12638C8.74845 23.1504 8.40369 22.936 8.24174 22.5943C8.0799 22.2524 8.12889 21.8494 8.36853 21.5569L13.7348 14.9988L8.36859 8.44072C8.12894 8.14822 8.0799 7.74 8.24179 7.39805C8.40363 7.05645 8.74851 6.83496 9.12644 6.83496H20.8736C21.414 6.83496 21.8593 7.2801 21.8593 7.82086V9.7787H21.8593Z" fill="#495D75"/>
</g>
<defs>
<clipPath id="clip0_16699_18046">
<rect width="30" height="30" fill="white"/>
</clipPath>
</defs>
</svg>
