<svg width="38" height="30" viewBox="0 0 38 30" fill="none" xmlns="http://www.w3.org/2000/svg">
<path d="M20.7289 3.17191L19.3462 0.37134C19.1177 -0.114952 18.4029 -0.132529 18.151 0.37134L16.7683 3.17191L13.7041 3.61133C13.1592 3.69336 12.9248 4.36714 13.3291 4.7714L15.5555 6.93921L15.0282 9.99172C14.9462 10.5366 15.5086 10.9584 16.0125 10.7065L18.7603 9.25349L21.4906 10.6831C21.9945 10.935 22.5628 10.5132 22.4749 9.96828L21.9476 6.91578L24.174 4.7714C24.5724 4.373 24.3439 3.69922 23.799 3.61133L20.7348 3.17191H20.7289ZM14.9989 15.0011C13.9619 15.0011 13.124 15.8389 13.124 16.876V28.1251C13.124 29.1622 13.9619 30 14.9989 30H22.4983C23.5354 30 24.3732 29.1622 24.3732 28.1251V16.876C24.3732 15.8389 23.5354 15.0011 22.4983 15.0011H14.9989ZM1.87486 18.7508C0.837828 18.7508 0 19.5887 0 20.6257V28.1251C0 29.1622 0.837828 30 1.87486 30H9.3743C10.4113 30 11.2492 29.1622 11.2492 28.1251V20.6257C11.2492 19.5887 10.4113 18.7508 9.3743 18.7508H1.87486ZM26.2481 24.3754V28.1251C26.2481 29.1622 27.0859 30 28.1229 30H35.6224C36.6594 30 37.4972 29.1622 37.4972 28.1251V24.3754C37.4972 23.3384 36.6594 22.5006 35.6224 22.5006H28.1229C27.0859 22.5006 26.2481 23.3384 26.2481 24.3754Z" fill="#495D75"/>
</svg>
