<svg width="19" height="23" viewBox="0 0 19 23" fill="none" xmlns="http://www.w3.org/2000/svg">
<path d="M17.8841 3.40978C17.8477 3.13012 17.6593 2.90007 17.4047 2.82446L9.24351 0.399968C9.12717 0.365375 9.00427 0.365375 8.88784 0.399968L0.726684 2.82446C0.472046 2.90007 0.283678 3.13002 0.247225 3.40978C0.19989 3.77338 -0.879977 12.3644 1.88981 16.6381C4.65632 20.9068 8.73751 22.0007 8.90987 22.0452C8.96109 22.0585 9.0133 22.065 9.06567 22.065C9.11805 22.065 9.17026 22.0584 9.22148 22.0452C9.39393 22.0007 13.4751 20.9068 16.2415 16.6381C19.0113 12.3645 17.9315 3.77348 17.8841 3.40978ZM14.3286 8.42529L8.76184 14.3719C8.63231 14.5102 8.46244 14.5795 8.29265 14.5795C8.12286 14.5795 7.95298 14.5103 7.82345 14.3719L4.38159 10.6952C4.25711 10.5623 4.18721 10.3819 4.18721 10.1939C4.18721 10.006 4.2572 9.82562 4.38159 9.69274L5.06499 8.96271C5.32414 8.68597 5.74432 8.68587 6.00339 8.96271L8.29265 11.4082L12.7068 6.69275C12.8312 6.55977 13 6.4851 13.176 6.4851C13.352 6.4851 13.5208 6.55977 13.6452 6.69275L14.3286 7.42278C14.5877 7.69961 14.5877 8.14846 14.3286 8.42529Z" fill="#00BA80"/>
</svg>
