<svg width="18" height="19" viewBox="0 0 18 19" fill="none" xmlns="http://www.w3.org/2000/svg">
<g clip-path="url(#clip0_16050_18006)">
<path d="M16.4881 8.86452C16.074 8.86452 15.7381 8.52861 15.7381 8.11457C15.7381 6.01082 14.9191 4.03383 13.4318 2.54573C13.1386 2.25254 13.1386 1.77861 13.4318 1.48528C13.725 1.19208 14.1991 1.19208 14.4923 1.48528C16.2631 3.256 17.238 5.61037 17.238 8.11457C17.238 8.52861 16.9021 8.86452 16.4881 8.86452Z" fill="#B3CEE2"/>
<path d="M1.48824 8.86452C1.07433 8.86452 0.738281 8.52861 0.738281 8.11457C0.738281 5.61037 1.71332 3.256 3.48404 1.48528C3.77724 1.19208 4.2513 1.19208 4.54449 1.48528C4.83783 1.77861 4.83783 2.25254 4.54449 2.54573C3.05722 4.03301 2.23833 6.01082 2.23833 8.11457C2.23833 8.52861 1.90228 8.86452 1.48824 8.86452Z" fill="#B3CEE2"/>
<path d="M16.0226 13.3879C14.8886 12.4294 14.2383 11.0284 14.2383 9.5441V7.45312C14.2383 4.81393 12.2778 2.62917 9.73833 2.26318V1.45308C9.73833 1.03835 9.40228 0.703125 8.98837 0.703125C8.57433 0.703125 8.23828 1.03835 8.23828 1.45308V2.26318C5.6981 2.62917 3.73828 4.81393 3.73828 7.45312V9.5441C3.73828 11.0284 3.08803 12.4294 1.94737 13.3938C1.65555 13.6436 1.48828 14.0066 1.48828 14.3906C1.48828 15.1144 2.07701 15.7032 2.80087 15.7032H15.1759C15.8996 15.7032 16.4883 15.1144 16.4883 14.3906C16.4883 14.0066 16.3211 13.6436 16.0226 13.3879Z" fill="#B3CEE2"/>
<path d="M8.98842 18.7031C10.3466 18.7031 11.4829 17.7348 11.7439 16.4531H6.23291C6.49384 17.7348 7.6301 18.7031 8.98842 18.7031Z" fill="#B3CEE2"/>
</g>
<defs>
<clipPath id="clip0_16050_18006">
<rect width="18" height="18" fill="white" transform="translate(0 0.703125)"/>
</clipPath>
</defs>
</svg>
