<svg width="241" height="33" viewBox="0 0 241 33" fill="none" xmlns="http://www.w3.org/2000/svg">
<path d="M7.00904 9.61406L11.4595 5.17106L15.9124 9.61641L18.502 7.03106L11.4595 0L4.41943 7.02871L7.00904 9.61406Z" fill="#F3BA2F"/>
<path d="M5.17941 11.4383L2.58984 8.85303L0.00015315 11.4385L2.58972 14.0238L5.17941 11.4383Z" fill="#F3BA2F"/>
<path d="M7.00796 13.2644L11.4585 17.7074L15.9111 13.2622L18.5022 15.8461L18.5009 15.8476L11.4585 22.8784L4.41817 15.8499L4.41455 15.8463L7.00796 13.2644Z" fill="#F3BA2F"/>
<path d="M20.3278 14.0249L22.9175 11.4395L20.3279 8.85415L17.7382 11.4396L20.3278 14.0249Z" fill="#F3BA2F"/>
<path d="M14.0873 11.4365H14.0884L11.4606 8.81299L9.51863 10.7518H9.51845L9.29545 10.9746L8.83516 11.4341L8.83154 11.4377L8.83516 11.4415L11.4606 14.0627L14.0884 11.4392L14.0897 11.4377L14.0873 11.4365Z" fill="#F3BA2F"/>
<path d="M26.9556 1.44189H31.686C32.8601 1.44189 33.7479 1.74271 34.3496 2.34433C34.8152 2.81027 35.048 3.38776 35.048 4.07665V4.10579C35.048 4.39688 35.0119 4.65414 34.9394 4.87724C34.8671 5.10065 34.7704 5.30174 34.6495 5.48129C34.529 5.66099 34.3888 5.81868 34.2295 5.95436C34.07 6.09035 33.8987 6.20691 33.7152 6.30374C34.3053 6.52715 34.7699 6.83023 35.1086 7.21361C35.4472 7.59714 35.6167 8.12849 35.6167 8.80766V8.83665C35.6167 9.30259 35.527 9.7101 35.3475 10.0596C35.1679 10.4089 34.9107 10.7001 34.5758 10.9331C34.2409 11.166 33.8382 11.3406 33.3675 11.4571C32.8969 11.5735 32.3753 11.6317 31.8029 11.6317H26.9556V1.44189ZM31.2131 5.56143C31.709 5.56143 32.1027 5.47674 32.3941 5.30675C32.6857 5.13692 32.8315 4.86267 32.8315 4.4843V4.45516C32.8315 4.11565 32.705 3.85612 32.4524 3.67642C32.1995 3.49688 31.835 3.40703 31.3589 3.40703H29.1425V5.56143H31.2131V5.56143ZM31.811 9.66669C32.3067 9.66669 32.6953 9.57714 32.9774 9.39745C33.2593 9.2179 33.4004 8.93879 33.4004 8.56028V8.53129C33.4004 8.19162 33.269 7.92238 33.0066 7.72326C32.7441 7.52459 32.3213 7.42503 31.738 7.42503H29.1425V9.66684H31.811V9.66669Z" fill="#F3BA2F"/>
<path d="M38.436 1.44189H40.6817V11.632H38.436V1.44189Z" fill="#F3BA2F"/>
<path d="M44.082 1.44189H46.1523L50.935 7.71612V1.44189H53.1513V11.632H51.2413L46.2982 5.15407V11.632H44.082V1.44189Z" fill="#F3BA2F"/>
<path d="M59.9499 1.3667H62.0203L66.3949 11.6295H64.0472L63.1139 9.34411H58.7979L57.8648 11.6295H55.5752L59.9499 1.3667ZM62.312 7.3641L60.9558 4.05973L59.6001 7.3641H62.312Z" fill="#F3BA2F"/>
<path d="M68.8198 1.44189H70.8905L75.6729 7.71612V1.44189H77.8893V11.632H75.9793L71.0361 5.15407V11.632H68.8198V1.44189V1.44189Z" fill="#F3BA2F"/>
<path d="M85.9701 11.8049C85.2212 11.8049 84.5265 11.6689 83.8848 11.3974C83.2431 11.1259 82.6891 10.7545 82.2226 10.2837C81.7559 9.81309 81.3912 9.25745 81.1291 8.61698C80.8666 7.97635 80.7354 7.29217 80.7354 6.56427V6.53528C80.7354 5.80739 80.8666 5.12578 81.1291 4.49001C81.3913 3.85439 81.7559 3.29633 82.2226 2.81597C82.689 2.33561 83.2481 1.95694 83.8992 1.68042C84.5503 1.40389 85.2702 1.26562 86.0575 1.26562C86.5335 1.26562 86.9684 1.30463 87.3621 1.38203C87.7559 1.45989 88.113 1.56644 88.434 1.70227C88.7549 1.83826 89.0511 2.00323 89.3237 2.1972C89.5953 2.39147 89.8483 2.60486 90.0816 2.83783L88.6529 4.48272C88.2539 4.12378 87.8483 3.8421 87.4352 3.63842C87.0219 3.43474 86.5579 3.33275 86.0427 3.33275C85.6149 3.33275 85.2188 3.41532 84.8545 3.58029C84.49 3.74527 84.1764 3.97323 83.9138 4.26432C83.6516 4.55542 83.4474 4.89281 83.3013 5.27603C83.1558 5.65956 83.083 6.06949 83.083 6.50614V6.53513C83.083 6.97178 83.1558 7.38444 83.3013 7.77237C83.4474 8.16075 83.6487 8.50027 83.9067 8.79136C84.164 9.08246 84.4752 9.31315 84.8396 9.48298C85.2045 9.65297 85.6054 9.73766 86.0427 9.73766C86.6262 9.73766 87.119 9.63096 87.5225 9.41742C87.926 9.20418 88.3271 8.91293 88.7256 8.54398L90.1546 9.9852C89.8921 10.2667 89.6195 10.5191 89.3381 10.7421C89.0561 10.9655 88.7475 11.157 88.412 11.3173C88.0768 11.4773 87.7095 11.5988 87.3113 11.6811C86.9124 11.7635 86.4655 11.8049 85.9701 11.8049Z" fill="#F3BA2F"/>
<path d="M92.7949 1.44189H100.479V3.43632H95.0114V5.50345H99.8232V7.49772H95.0114V9.6377H100.552V11.632H92.7949V1.44189Z" fill="#F3BA2F"/>
<path d="M54.7145 15.1452V16.0752H51.7645V18.1252H54.0645V19.0552H51.7645V22.0952H50.6245V15.1452H54.7145ZM58.401 15.1452V19.5752C58.401 20.1019 58.5377 20.4985 58.811 20.7652C59.091 21.0319 59.4777 21.1652 59.971 21.1652C60.471 21.1652 60.8577 21.0319 61.131 20.7652C61.411 20.4985 61.551 20.1019 61.551 19.5752V15.1452H62.691V19.5552C62.691 20.1219 62.5677 20.6019 62.321 20.9952C62.0743 21.3885 61.7443 21.6819 61.331 21.8752C60.9177 22.0685 60.461 22.1652 59.961 22.1652C59.461 22.1652 59.0043 22.0685 58.591 21.8752C58.1843 21.6819 57.861 21.3885 57.621 20.9952C57.381 20.6019 57.261 20.1219 57.261 19.5552V15.1452H58.401ZM70.1653 15.1452V16.0752H68.3153V22.0952H67.1753V16.0752H65.3153V15.1452H70.1653ZM73.9498 15.1452V19.5752C73.9498 20.1019 74.0865 20.4985 74.3598 20.7652C74.6398 21.0319 75.0265 21.1652 75.5198 21.1652C76.0198 21.1652 76.4065 21.0319 76.6798 20.7652C76.9598 20.4985 77.0998 20.1019 77.0998 19.5752V15.1452H78.2398V19.5552C78.2398 20.1219 78.1165 20.6019 77.8698 20.9952C77.6232 21.3885 77.2932 21.6819 76.8798 21.8752C76.4665 22.0685 76.0098 22.1652 75.5098 22.1652C75.0098 22.1652 74.5532 22.0685 74.1398 21.8752C73.7332 21.6819 73.4098 21.3885 73.1698 20.9952C72.9298 20.6019 72.8098 20.1219 72.8098 19.5552V15.1452H73.9498ZM84.8341 22.0952L83.2341 19.3152H82.3641V22.0952H81.2241V15.1452H83.6241C84.1575 15.1452 84.6075 15.2385 84.9741 15.4252C85.3475 15.6119 85.6241 15.8619 85.8041 16.1752C85.9908 16.4885 86.0841 16.8385 86.0841 17.2252C86.0841 17.6785 85.9508 18.0919 85.6841 18.4652C85.4241 18.8319 85.0208 19.0819 84.4741 19.2152L86.1941 22.0952H84.8341ZM82.3641 18.4052H83.6241C84.0508 18.4052 84.3708 18.2985 84.5841 18.0852C84.8041 17.8719 84.9141 17.5852 84.9141 17.2252C84.9141 16.8652 84.8075 16.5852 84.5941 16.3852C84.3808 16.1785 84.0575 16.0752 83.6241 16.0752H82.3641V18.4052ZM90.1825 16.0652V18.1052H92.5825V19.0352H90.1825V21.1652H92.8825V22.0952H89.0425V15.1352H92.8825V16.0652H90.1825ZM98.0766 22.1652C97.61 22.1652 97.19 22.0852 96.8166 21.9252C96.4433 21.7585 96.15 21.5252 95.9366 21.2252C95.7233 20.9252 95.6166 20.5752 95.6166 20.1752H96.8366C96.8633 20.4752 96.98 20.7219 97.1866 20.9152C97.4 21.1085 97.6966 21.2052 98.0766 21.2052C98.47 21.2052 98.7766 21.1119 98.9966 20.9252C99.2166 20.7319 99.3266 20.4852 99.3266 20.1852C99.3266 19.9519 99.2566 19.7619 99.1166 19.6152C98.9833 19.4685 98.8133 19.3552 98.6066 19.2752C98.4066 19.1952 98.1266 19.1085 97.7666 19.0152C97.3133 18.8952 96.9433 18.7752 96.6566 18.6552C96.3766 18.5285 96.1366 18.3352 95.9366 18.0752C95.7366 17.8152 95.6366 17.4685 95.6366 17.0352C95.6366 16.6352 95.7366 16.2852 95.9366 15.9852C96.1366 15.6852 96.4166 15.4552 96.7766 15.2952C97.1366 15.1352 97.5533 15.0552 98.0266 15.0552C98.7 15.0552 99.25 15.2252 99.6766 15.5652C100.11 15.8985 100.35 16.3585 100.397 16.9452H99.1366C99.1166 16.6919 98.9966 16.4752 98.7766 16.2952C98.5566 16.1152 98.2666 16.0252 97.9066 16.0252C97.58 16.0252 97.3133 16.1085 97.1066 16.2752C96.9 16.4419 96.7966 16.6819 96.7966 16.9952C96.7966 17.2085 96.86 17.3852 96.9866 17.5252C97.12 17.6585 97.2866 17.7652 97.4866 17.8452C97.6866 17.9252 97.96 18.0119 98.3066 18.1052C98.7666 18.2319 99.14 18.3585 99.4266 18.4852C99.72 18.6119 99.9666 18.8085 100.167 19.0752C100.373 19.3352 100.477 19.6852 100.477 20.1252C100.477 20.4785 100.38 20.8119 100.187 21.1252C100 21.4385 99.7233 21.6919 99.3566 21.8852C98.9966 22.0719 98.57 22.1652 98.0766 22.1652Z" fill="#F3BA2F"/>
<rect x="26.8745" y="18.0952" width="16" height="1" fill="#F3BA2F"/>
</svg>
