<svg width="27" height="21" viewBox="0 0 27 21" fill="none" xmlns="http://www.w3.org/2000/svg">
<path d="M25.0168 0.284338L24.5795 0.442911L0.846459 8.99383C0.678273 9.04584 0.532097 9.15218 0.430843 9.29619C0.329589 9.4402 0.27898 9.61374 0.286948 9.7896C0.294917 9.96546 0.361013 10.1337 0.474877 10.268C0.58874 10.4022 0.743935 10.4949 0.916135 10.5315L7.05963 12.2133L8.20568 15.577L9.35173 18.9407C9.41757 19.1056 9.52266 19.2519 9.65788 19.367C9.7931 19.482 9.95437 19.5623 10.1277 19.6009C10.301 19.6395 10.4811 19.6352 10.6523 19.5884C10.8236 19.5416 10.9809 19.4537 11.1104 19.3323L14.2843 16.3338L20.5167 20.56C21.2783 21.079 22.3643 20.6946 22.5589 19.8393L26.6866 1.60097C26.8885 0.697588 25.937 -0.044821 25.0168 0.284338ZM21.9871 4.33275L11.2642 13.0975L10.7597 13.5108C10.6488 13.5986 10.5765 13.7261 10.5578 13.8663L10.4449 14.7986L10.135 17.4174C10.1375 17.4493 10.1273 17.4808 10.1066 17.5052C10.0859 17.5295 10.0563 17.5446 10.0245 17.5472C9.99261 17.5497 9.96104 17.5395 9.9367 17.5188C9.91237 17.498 9.89727 17.4685 9.89472 17.4366L9.02257 14.8202L8.12159 12.1413C8.08348 12.0208 8.08855 11.8909 8.13591 11.7738C8.18327 11.6567 8.26996 11.5598 8.38107 11.4998L19.5388 5.10399L21.6387 3.90268C21.9439 3.72489 22.2562 4.11171 21.9871 4.33275Z" fill="white"/>
</svg>
